solid OpenSCAD_Model
  facet normal -0.000000 -0.000000 -1.000000
    outer loop
      vertex -51.715139 -5.435480 0.000000
      vertex -51.715139 5.435480 0.000000
      vertex -49.454939 -16.068884 0.000000
    endloop
  endfacet
  facet normal 0.000000 0.000000 -1.000000
    outer loop
      vertex -49.454939 -16.068884 0.000000
      vertex -51.715139 5.435480 0.000000
      vertex -49.454939 16.068884 0.000000
    endloop
  endfacet
  facet normal 0.000000 -0.000000 -1.000000
    outer loop
      vertex -49.454939 -16.068884 0.000000
      vertex -49.454939 16.068884 0.000000
      vertex -45.033321 26.000000 0.000000
    endloop
  endfacet
  facet normal 0.000000 0.000000 -1.000000
    outer loop
      vertex -49.454939 -16.068884 0.000000
      vertex -45.033321 26.000000 0.000000
      vertex -38.643531 34.794792 0.000000
    endloop
  endfacet
  facet normal 0.000000 0.000000 -1.000000
    outer loop
      vertex -49.454939 -16.068884 0.000000
      vertex -38.643531 34.794792 0.000000
      vertex -30.564833 42.068884 0.000000
    endloop
  endfacet
  facet normal 0.000000 0.000000 -1.000000
    outer loop
      vertex -49.454939 -16.068884 0.000000
      vertex -30.564833 42.068884 0.000000
      vertex -21.150305 47.504364 0.000000
    endloop
  endfacet
  facet normal 0.000000 0.000000 -1.000000
    outer loop
      vertex -49.454939 -16.068884 0.000000
      vertex -21.150305 47.504364 0.000000
      vertex -10.811408 50.863675 0.000000
    endloop
  endfacet
  facet normal 0.000000 0.000000 -1.000000
    outer loop
      vertex -49.454939 -16.068884 0.000000
      vertex -10.811408 50.863675 0.000000
      vertex 0.000000 52.000000 0.000000
    endloop
  endfacet
  facet normal 0.000000 0.000000 -1.000000
    outer loop
      vertex -49.454939 -16.068884 0.000000
      vertex 0.000000 52.000000 0.000000
      vertex 10.811408 50.863675 0.000000
    endloop
  endfacet
  facet normal 0.000000 0.000000 -1.000000
    outer loop
      vertex -49.454939 -16.068884 0.000000
      vertex 10.811408 50.863675 0.000000
      vertex 21.150305 47.504364 0.000000
    endloop
  endfacet
  facet normal 0.000000 0.000000 -1.000000
    outer loop
      vertex -49.454939 -16.068884 0.000000
      vertex 21.150305 47.504364 0.000000
      vertex 30.564833 42.068884 0.000000
    endloop
  endfacet
  facet normal 0.000000 0.000000 -1.000000
    outer loop
      vertex -49.454939 -16.068884 0.000000
      vertex 30.564833 42.068884 0.000000
      vertex 38.643531 34.794792 0.000000
    endloop
  endfacet
  facet normal 0.000000 0.000000 -1.000000
    outer loop
      vertex -49.454939 -16.068884 0.000000
      vertex 38.643531 34.794792 0.000000
      vertex 45.033321 26.000000 0.000000
    endloop
  endfacet
  facet normal 0.000000 0.000000 -1.000000
    outer loop
      vertex -49.454939 -16.068884 0.000000
      vertex 45.033321 26.000000 0.000000
      vertex 49.454939 16.068884 0.000000
    endloop
  endfacet
  facet normal 0.000000 0.000000 -1.000000
    outer loop
      vertex -49.454939 -16.068884 0.000000
      vertex 49.454939 16.068884 0.000000
      vertex 51.715139 5.435480 0.000000
    endloop
  endfacet
  facet normal 0.000000 0.000000 -1.000000
    outer loop
      vertex -49.454939 -16.068884 0.000000
      vertex 51.715139 5.435480 0.000000
      vertex 51.715139 -5.435480 0.000000
    endloop
  endfacet
  facet normal -0.000000 0.000000 -1.000000
    outer loop
      vertex -49.454939 -16.068884 0.000000
      vertex 51.715139 -5.435480 0.000000
      vertex 49.454939 -16.068884 0.000000
    endloop
  endfacet
  facet normal 0.000000 0.000000 -1.000000
    outer loop
      vertex -49.454939 -16.068884 0.000000
      vertex 49.454939 -16.068884 0.000000
      vertex 45.033321 -26.000000 0.000000
    endloop
  endfacet
  facet normal 0.000000 0.000000 -1.000000
    outer loop
      vertex -49.454939 -16.068884 0.000000
      vertex 45.033321 -26.000000 0.000000
      vertex 38.643531 -34.794792 0.000000
    endloop
  endfacet
  facet normal 0.000000 0.000000 -1.000000
    outer loop
      vertex -49.454939 -16.068884 0.000000
      vertex 38.643531 -34.794792 0.000000
      vertex 30.564833 -42.068884 0.000000
    endloop
  endfacet
  facet normal 0.000000 0.000000 -1.000000
    outer loop
      vertex -49.454939 -16.068884 0.000000
      vertex 30.564833 -42.068884 0.000000
      vertex 21.150305 -47.504364 0.000000
    endloop
  endfacet
  facet normal 0.000000 0.000000 -1.000000
    outer loop
      vertex -49.454939 -16.068884 0.000000
      vertex 21.150305 -47.504364 0.000000
      vertex 10.811408 -50.863675 0.000000
    endloop
  endfacet
  facet normal 0.000000 0.000000 -1.000000
    outer loop
      vertex -49.454939 -16.068884 0.000000
      vertex 10.811408 -50.863675 0.000000
      vertex 0.000000 -52.000000 0.000000
    endloop
  endfacet
  facet normal 0.000000 0.000000 -1.000000
    outer loop
      vertex -49.454939 -16.068884 0.000000
      vertex 0.000000 -52.000000 0.000000
      vertex -10.811408 -50.863675 0.000000
    endloop
  endfacet
  facet normal 0.000000 0.000000 -1.000000
    outer loop
      vertex -49.454939 -16.068884 0.000000
      vertex -10.811408 -50.863675 0.000000
      vertex -21.150305 -47.504364 0.000000
    endloop
  endfacet
  facet normal 0.000000 0.000000 -1.000000
    outer loop
      vertex -49.454939 -16.068884 0.000000
      vertex -21.150305 -47.504364 0.000000
      vertex -30.564833 -42.068884 0.000000
    endloop
  endfacet
  facet normal 0.000000 0.000000 -1.000000
    outer loop
      vertex -49.454939 -16.068884 0.000000
      vertex -30.564833 -42.068884 0.000000
      vertex -38.643531 -34.794792 0.000000
    endloop
  endfacet
  facet normal 0.000000 0.000000 -1.000000
    outer loop
      vertex -49.454939 -16.068884 0.000000
      vertex -38.643531 -34.794792 0.000000
      vertex -45.033321 -26.000000 0.000000
    endloop
  endfacet
  facet normal -0.902447 0.000000 0.430801
    outer loop
      vertex -51.715139 -5.435480 0.000000
      vertex -39.780876 -4.181139 25.000000
      vertex -51.715139 5.435480 0.000000
    endloop
  endfacet
  facet normal -0.902447 0.000000 0.430801
    outer loop
      vertex -51.715139 5.435480 0.000000
      vertex -39.780876 -4.181139 25.000000
      vertex -39.780876 4.181139 25.000000
    endloop
  endfacet
  facet normal -0.882726 -0.187629 0.430801
    outer loop
      vertex -39.780876 -4.181139 25.000000
      vertex -51.715139 -5.435480 0.000000
      vertex -49.454939 -16.068884 0.000000
    endloop
  endfacet
  facet normal -0.882726 -0.187629 0.430801
    outer loop
      vertex -39.780876 -4.181139 25.000000
      vertex -49.454939 -16.068884 0.000000
      vertex -38.042261 -12.360680 25.000000
    endloop
  endfacet
  facet normal -0.824426 -0.367058 0.430801
    outer loop
      vertex -38.042261 -12.360680 25.000000
      vertex -49.454939 -16.068884 0.000000
      vertex -45.033321 -26.000000 0.000000
    endloop
  endfacet
  facet normal -0.824426 -0.367058 0.430801
    outer loop
      vertex -45.033321 -26.000000 0.000000
      vertex -34.641016 -20.000000 25.000000
      vertex -38.042261 -12.360680 25.000000
    endloop
  endfacet
  facet normal -0.824426 -0.367058 0.430801
    outer loop
      vertex -34.641016 -19.999999 25.000000
      vertex -38.042261 -12.360680 25.000000
      vertex -34.641016 -20.000000 25.000000
    endloop
  endfacet
  facet normal -0.730095 -0.530445 0.430801
    outer loop
      vertex -45.033321 -26.000000 0.000000
      vertex -38.643531 -34.794792 0.000000
      vertex -34.641016 -20.000000 25.000000
    endloop
  endfacet
  facet normal -0.730095 -0.530445 0.430801
    outer loop
      vertex -38.643531 -34.794792 0.000000
      vertex -29.725793 -26.765224 25.000000
      vertex -34.641016 -20.000000 25.000000
    endloop
  endfacet
  facet normal -0.603855 -0.670649 0.430801
    outer loop
      vertex -29.725793 -26.765224 25.000000
      vertex -38.643531 -34.794792 0.000000
      vertex -30.564833 -42.068884 0.000000
    endloop
  endfacet
  facet normal -0.603855 -0.670649 0.430801
    outer loop
      vertex -29.725793 -26.765224 25.000000
      vertex -30.564833 -42.068884 0.000000
      vertex -23.511410 -32.360680 25.000000
    endloop
  endfacet
  facet normal -0.451223 -0.781542 0.430801
    outer loop
      vertex -23.511410 -32.360680 25.000000
      vertex -30.564833 -42.068884 0.000000
      vertex -21.150305 -47.504364 0.000000
    endloop
  endfacet
  facet normal -0.451223 -0.781542 0.430801
    outer loop
      vertex -16.269466 -36.541818 25.000000
      vertex -23.511410 -32.360680 25.000000
      vertex -21.150305 -47.504364 0.000000
    endloop
  endfacet
  facet normal -0.278871 -0.858278 0.430801
    outer loop
      vertex -16.269466 -36.541818 25.000000
      vertex -21.150305 -47.504364 0.000000
      vertex -10.811408 -50.863675 0.000000
    endloop
  endfacet
  facet normal -0.278871 -0.858278 0.430801
    outer loop
      vertex -8.316468 -39.125904 25.000000
      vertex -16.269466 -36.541818 25.000000
      vertex -10.811408 -50.863675 0.000000
    endloop
  endfacet
  facet normal -0.094331 -0.897503 0.430801
    outer loop
      vertex -8.316468 -39.125904 25.000000
      vertex -10.811408 -50.863675 0.000000
      vertex 0.000000 -52.000000 0.000000
    endloop
  endfacet
  facet normal -0.094331 -0.897503 0.430801
    outer loop
      vertex 0.000000 -40.000000 25.000000
      vertex -8.316468 -39.125904 25.000000
      vertex 0.000000 -52.000000 0.000000
    endloop
  endfacet
  facet normal 0.094331 -0.897503 0.430801
    outer loop
      vertex 0.000000 -40.000000 25.000000
      vertex 0.000000 -52.000000 0.000000
      vertex 10.811408 -50.863675 0.000000
    endloop
  endfacet
  facet normal 0.094331 -0.897503 0.430801
    outer loop
      vertex 8.316468 -39.125904 25.000000
      vertex 0.000000 -40.000000 25.000000
      vertex 10.811408 -50.863675 0.000000
    endloop
  endfacet
  facet normal 0.278871 -0.858278 0.430801
    outer loop
      vertex 21.150305 -47.504364 0.000000
      vertex 8.316468 -39.125904 25.000000
      vertex 10.811408 -50.863675 0.000000
    endloop
  endfacet
  facet normal 0.278871 -0.858278 0.430801
    outer loop
      vertex 16.269466 -36.541818 25.000000
      vertex 8.316468 -39.125904 25.000000
      vertex 21.150305 -47.504364 0.000000
    endloop
  endfacet
  facet normal 0.451223 -0.781542 0.430801
    outer loop
      vertex 30.564833 -42.068884 0.000000
      vertex 16.269466 -36.541818 25.000000
      vertex 21.150305 -47.504364 0.000000
    endloop
  endfacet
  facet normal 0.451223 -0.781542 0.430801
    outer loop
      vertex 23.511410 -32.360680 25.000000
      vertex 16.269466 -36.541818 25.000000
      vertex 30.564833 -42.068884 0.000000
    endloop
  endfacet
  facet normal 0.603855 -0.670649 0.430801
    outer loop
      vertex 38.643531 -34.794792 0.000000
      vertex 23.511410 -32.360680 25.000000
      vertex 30.564833 -42.068884 0.000000
    endloop
  endfacet
  facet normal 0.603855 -0.670649 0.430801
    outer loop
      vertex 29.725793 -26.765224 25.000000
      vertex 23.511410 -32.360680 25.000000
      vertex 38.643531 -34.794792 0.000000
    endloop
  endfacet
  facet normal 0.730095 -0.530445 0.430801
    outer loop
      vertex 45.033321 -26.000000 0.000000
      vertex 29.725793 -26.765224 25.000000
      vertex 38.643531 -34.794792 0.000000
    endloop
  endfacet
  facet normal 0.730095 -0.530445 0.430801
    outer loop
      vertex 34.641016 -20.000000 25.000000
      vertex 29.725793 -26.765224 25.000000
      vertex 45.033321 -26.000000 0.000000
    endloop
  endfacet
  facet normal 0.824426 -0.367058 0.430801
    outer loop
      vertex 49.454939 -16.068884 0.000000
      vertex 34.641016 -20.000000 25.000000
      vertex 45.033321 -26.000000 0.000000
    endloop
  endfacet
  facet normal 0.824426 -0.367058 0.430801
    outer loop
      vertex 34.641016 -19.999999 25.000000
      vertex 34.641016 -20.000000 25.000000
      vertex 49.454939 -16.068884 0.000000
    endloop
  endfacet
  facet normal 0.824426 -0.367058 0.430801
    outer loop
      vertex 38.042261 -12.360680 25.000000
      vertex 34.641016 -19.999999 25.000000
      vertex 49.454939 -16.068884 0.000000
    endloop
  endfacet
  facet normal 0.882726 -0.187629 0.430801
    outer loop
      vertex 51.715139 -5.435480 0.000000
      vertex 38.042261 -12.360680 25.000000
      vertex 49.454939 -16.068884 0.000000
    endloop
  endfacet
  facet normal 0.882726 -0.187629 0.430801
    outer loop
      vertex 39.780876 -4.181139 25.000000
      vertex 38.042261 -12.360680 25.000000
      vertex 51.715139 -5.435480 0.000000
    endloop
  endfacet
  facet normal 0.902447 -0.000000 0.430801
    outer loop
      vertex 39.780876 4.181139 25.000000
      vertex 39.780876 -4.181139 25.000000
      vertex 51.715139 -5.435480 0.000000
    endloop
  endfacet
  facet normal 0.902447 -0.000000 0.430801
    outer loop
      vertex 51.715139 5.435480 0.000000
      vertex 39.780876 4.181139 25.000000
      vertex 51.715139 -5.435480 0.000000
    endloop
  endfacet
  facet normal 0.882726 0.187629 0.430801
    outer loop
      vertex 49.454939 16.068884 0.000000
      vertex 39.780876 4.181139 25.000000
      vertex 51.715139 5.435480 0.000000
    endloop
  endfacet
  facet normal 0.882726 0.187629 0.430801
    outer loop
      vertex 49.454939 16.068884 0.000000
      vertex 38.042261 12.360680 25.000000
      vertex 39.780876 4.181139 25.000000
    endloop
  endfacet
  facet normal 0.824426 0.367058 0.430801
    outer loop
      vertex 45.033321 26.000000 0.000000
      vertex 38.042261 12.360680 25.000000
      vertex 49.454939 16.068884 0.000000
    endloop
  endfacet
  facet normal 0.824426 0.367058 0.430801
    outer loop
      vertex 45.033321 26.000000 0.000000
      vertex 34.641016 20.000000 25.000000
      vertex 38.042261 12.360680 25.000000
    endloop
  endfacet
  facet normal 0.730095 0.530445 0.430801
    outer loop
      vertex 38.643531 34.794792 0.000000
      vertex 34.641016 20.000000 25.000000
      vertex 45.033321 26.000000 0.000000
    endloop
  endfacet
  facet normal 0.730095 0.530445 0.430801
    outer loop
      vertex 38.643531 34.794792 0.000000
      vertex 29.725793 26.765224 25.000000
      vertex 34.641016 20.000000 25.000000
    endloop
  endfacet
  facet normal 0.603855 0.670649 0.430801
    outer loop
      vertex 30.564833 42.068884 0.000000
      vertex 29.725793 26.765224 25.000000
      vertex 38.643531 34.794792 0.000000
    endloop
  endfacet
  facet normal 0.603855 0.670649 0.430801
    outer loop
      vertex 30.564833 42.068884 0.000000
      vertex 23.511410 32.360680 25.000000
      vertex 29.725793 26.765224 25.000000
    endloop
  endfacet
  facet normal 0.451223 0.781542 0.430801
    outer loop
      vertex 30.564833 42.068884 0.000000
      vertex 21.150305 47.504364 0.000000
      vertex 23.511410 32.360680 25.000000
    endloop
  endfacet
  facet normal 0.451223 0.781542 0.430801
    outer loop
      vertex 21.150305 47.504364 0.000000
      vertex 16.269466 36.541818 25.000000
      vertex 23.511410 32.360680 25.000000
    endloop
  endfacet
  facet normal 0.278871 0.858278 0.430801
    outer loop
      vertex 21.150305 47.504364 0.000000
      vertex 10.811408 50.863675 0.000000
      vertex 16.269466 36.541818 25.000000
    endloop
  endfacet
  facet normal 0.278871 0.858278 0.430801
    outer loop
      vertex 10.811408 50.863675 0.000000
      vertex 8.316468 39.125904 25.000000
      vertex 16.269466 36.541818 25.000000
    endloop
  endfacet
  facet normal 0.094331 0.897503 0.430801
    outer loop
      vertex 10.811408 50.863675 0.000000
      vertex 0.000000 52.000000 0.000000
      vertex 8.316468 39.125904 25.000000
    endloop
  endfacet
  facet normal 0.094331 0.897503 0.430801
    outer loop
      vertex 0.000000 52.000000 0.000000
      vertex 0.000000 40.000000 25.000000
      vertex 8.316468 39.125904 25.000000
    endloop
  endfacet
  facet normal -0.094331 0.897503 0.430801
    outer loop
      vertex 0.000000 52.000000 0.000000
      vertex -10.811408 50.863675 0.000000
      vertex 0.000000 40.000000 25.000000
    endloop
  endfacet
  facet normal -0.094331 0.897503 0.430801
    outer loop
      vertex 0.000000 40.000000 25.000000
      vertex -10.811408 50.863675 0.000000
      vertex -8.316468 39.125904 25.000000
    endloop
  endfacet
  facet normal -0.278871 0.858278 0.430801
    outer loop
      vertex -10.811408 50.863675 0.000000
      vertex -21.150305 47.504364 0.000000
      vertex -8.316468 39.125904 25.000000
    endloop
  endfacet
  facet normal -0.278871 0.858278 0.430801
    outer loop
      vertex -8.316468 39.125904 25.000000
      vertex -21.150305 47.504364 0.000000
      vertex -16.269466 36.541818 25.000000
    endloop
  endfacet
  facet normal -0.451223 0.781542 0.430801
    outer loop
      vertex -21.150305 47.504364 0.000000
      vertex -30.564833 42.068884 0.000000
      vertex -16.269466 36.541818 25.000000
    endloop
  endfacet
  facet normal -0.451223 0.781542 0.430801
    outer loop
      vertex -16.269466 36.541818 25.000000
      vertex -30.564833 42.068884 0.000000
      vertex -23.511410 32.360680 25.000000
    endloop
  endfacet
  facet normal -0.603855 0.670649 0.430801
    outer loop
      vertex -30.564833 42.068884 0.000000
      vertex -38.643531 34.794792 0.000000
      vertex -23.511410 32.360680 25.000000
    endloop
  endfacet
  facet normal -0.603855 0.670649 0.430801
    outer loop
      vertex -23.511410 32.360680 25.000000
      vertex -38.643531 34.794792 0.000000
      vertex -29.725793 26.765224 25.000000
    endloop
  endfacet
  facet normal -0.730095 0.530445 0.430801
    outer loop
      vertex -38.643531 34.794792 0.000000
      vertex -45.033321 26.000000 0.000000
      vertex -29.725793 26.765224 25.000000
    endloop
  endfacet
  facet normal -0.730095 0.530445 0.430801
    outer loop
      vertex -29.725793 26.765224 25.000000
      vertex -45.033321 26.000000 0.000000
      vertex -34.641016 20.000000 25.000000
    endloop
  endfacet
  facet normal -0.824426 0.367058 0.430801
    outer loop
      vertex -45.033321 26.000000 0.000000
      vertex -49.454939 16.068884 0.000000
      vertex -34.641016 20.000000 25.000000
    endloop
  endfacet
  facet normal -0.824426 0.367058 0.430801
    outer loop
      vertex -34.641016 20.000000 25.000000
      vertex -49.454939 16.068884 0.000000
      vertex -38.042261 12.360680 25.000000
    endloop
  endfacet
  facet normal -0.882726 0.187629 0.430801
    outer loop
      vertex -49.454939 16.068884 0.000000
      vertex -51.715139 5.435480 0.000000
      vertex -38.042261 12.360680 25.000000
    endloop
  endfacet
  facet normal -0.882726 0.187629 0.430801
    outer loop
      vertex -38.042261 12.360680 25.000000
      vertex -51.715139 5.435480 0.000000
      vertex -39.780876 4.181139 25.000000
    endloop
  endfacet
  facet normal 0.000000 -0.000000 1.000000
    outer loop
      vertex -39.780876 4.181139 25.000000
      vertex -39.780876 -4.181139 25.000000
      vertex -38.042261 -12.360680 25.000000
    endloop
  endfacet
  facet normal 0.000000 0.000000 1.000000
    outer loop
      vertex -35.026506 -18.186414 25.000000
      vertex -39.780876 4.181139 25.000000
      vertex -38.042261 -12.360680 25.000000
    endloop
  endfacet
  facet normal 0.000000 0.000000 1.000000
    outer loop
      vertex -34.641016 -19.999999 25.000000
      vertex -35.026506 -18.186414 25.000000
      vertex -38.042261 -12.360680 25.000000
    endloop
  endfacet
  facet normal 0.000000 0.000000 1.000000
    outer loop
      vertex -35.189091 -11.433629 25.000000
      vertex -36.797310 -3.867553 25.000000
      vertex -39.780876 4.181139 25.000000
    endloop
  endfacet
  facet normal -0.000000 -0.000000 1.000000
    outer loop
      vertex -35.189091 -11.433629 25.000000
      vertex -39.780876 4.181139 25.000000
      vertex -34.272375 -16.492608 25.000000
    endloop
  endfacet
  facet normal -0.000000 0.000000 1.000000
    outer loop
      vertex -33.209821 -15.879142 25.000000
      vertex -35.189091 -11.433629 25.000000
      vertex -34.272375 -16.492608 25.000000
    endloop
  endfacet
  facet normal -0.000000 0.000000 1.000000
    outer loop
      vertex -36.797310 3.867553 25.000000
      vertex -39.780876 4.181139 25.000000
      vertex -36.797310 -3.867553 25.000000
    endloop
  endfacet
  facet normal 0.000000 0.000000 1.000000
    outer loop
      vertex -35.189091 11.433629 25.000000
      vertex -39.780876 4.181139 25.000000
      vertex -36.797310 3.867553 25.000000
    endloop
  endfacet
  facet normal 0.000000 0.000000 1.000000
    outer loop
      vertex -32.042940 18.500000 25.000000
      vertex -39.780876 4.181139 25.000000
      vertex -35.189091 11.433629 25.000000
    endloop
  endfacet
  facet normal 0.000000 0.000000 1.000000
    outer loop
      vertex -29.725793 26.765224 25.000000
      vertex -39.780876 4.181139 25.000000
      vertex -32.042940 18.500000 25.000000
    endloop
  endfacet
  facet normal 0.000000 0.000000 1.000000
    outer loop
      vertex -23.511410 32.360680 25.000000
      vertex -32.042940 18.500000 25.000000
      vertex -27.496359 24.757832 25.000000
    endloop
  endfacet
  facet normal 0.000000 0.000000 1.000000
    outer loop
      vertex -16.269466 36.541818 25.000000
      vertex -27.496359 24.757832 25.000000
      vertex -21.748054 29.933629 25.000000
    endloop
  endfacet
  facet normal 0.000000 0.000000 1.000000
    outer loop
      vertex -8.316468 39.125904 25.000000
      vertex -21.748054 29.933629 25.000000
      vertex -15.049256 33.801182 25.000000
    endloop
  endfacet
  facet normal 0.000000 0.000000 1.000000
    outer loop
      vertex -2.853170 37.927051 25.000000
      vertex -15.049256 33.801182 25.000000
      vertex -7.692733 36.191461 25.000000
    endloop
  endfacet
  facet normal 0.000000 0.000000 1.000000
    outer loop
      vertex -2.853170 37.927051 25.000000
      vertex -7.692733 36.191461 25.000000
      vertex -2.853170 36.700120 25.000000
    endloop
  endfacet
  facet normal 0.000000 0.000000 1.000000
    outer loop
      vertex -1.763356 39.427051 25.000000
      vertex -15.049256 33.801182 25.000000
      vertex -2.853170 37.927051 25.000000
    endloop
  endfacet
  facet normal 0.000000 -0.000000 1.000000
    outer loop
      vertex -8.316468 39.125904 25.000000
      vertex -15.049256 33.801182 25.000000
      vertex -1.763356 39.427051 25.000000
    endloop
  endfacet
  facet normal 0.000000 0.000000 1.000000
    outer loop
      vertex 0.000000 40.000000 25.000000
      vertex -8.316468 39.125904 25.000000
      vertex -1.763356 39.427051 25.000000
    endloop
  endfacet
  facet normal 0.000000 -0.000000 1.000000
    outer loop
      vertex -16.269466 36.541818 25.000000
      vertex -21.748054 29.933629 25.000000
      vertex -8.316468 39.125904 25.000000
    endloop
  endfacet
  facet normal 0.000000 -0.000000 1.000000
    outer loop
      vertex -23.511410 32.360680 25.000000
      vertex -27.496359 24.757832 25.000000
      vertex -16.269466 36.541818 25.000000
    endloop
  endfacet
  facet normal 0.000000 -0.000000 1.000000
    outer loop
      vertex -29.725793 26.765224 25.000000
      vertex -32.042940 18.500000 25.000000
      vertex -23.511410 32.360680 25.000000
    endloop
  endfacet
  facet normal 0.000000 -0.000000 1.000000
    outer loop
      vertex -34.641016 20.000000 25.000000
      vertex -39.780876 4.181139 25.000000
      vertex -29.725793 26.765224 25.000000
    endloop
  endfacet
  facet normal 0.000000 -0.000000 1.000000
    outer loop
      vertex -38.042261 12.360680 25.000000
      vertex -39.780876 4.181139 25.000000
      vertex -34.641016 20.000000 25.000000
    endloop
  endfacet
  facet normal 0.000000 0.000000 1.000000
    outer loop
      vertex -35.026506 -18.186414 25.000000
      vertex -34.272375 -16.492608 25.000000
      vertex -39.780876 4.181139 25.000000
    endloop
  endfacet
  facet normal -0.978148 -0.207912 -0.000000
    outer loop
      vertex -35.026506 -18.186414 25.000000
      vertex -34.641016 -19.999999 25.000000
      vertex -35.026506 -18.186414 45.000000
    endloop
  endfacet
  facet normal -0.978148 -0.207912 0.000000
    outer loop
      vertex -35.026506 -18.186414 45.000000
      vertex -34.641016 -19.999999 25.000000
      vertex -34.641016 -20.000000 25.000000
    endloop
  endfacet
  facet normal -0.978148 -0.207912 0.000000
    outer loop
      vertex -35.026506 -18.186414 45.000000
      vertex -34.641016 -20.000000 25.000000
      vertex -34.641016 -20.000000 45.000000
    endloop
  endfacet
  facet normal -0.669131 -0.743145 -0.000000
    outer loop
      vertex -34.641016 -20.000000 25.000000
      vertex -33.263150 -21.240637 25.000000
      vertex -34.641016 -20.000000 45.000000
    endloop
  endfacet
  facet normal -0.669131 -0.743145 -0.000000
    outer loop
      vertex -33.263150 -21.240637 25.000000
      vertex -33.263150 -21.240637 45.000000
      vertex -34.641016 -20.000000 45.000000
    endloop
  endfacet
  facet normal -0.000000 -0.000000 1.000000
    outer loop
      vertex -33.263150 -21.240637 25.000000
      vertex -34.641016 -20.000000 25.000000
      vertex -29.725793 -26.765224 25.000000
    endloop
  endfacet
  facet normal 0.000000 0.000000 1.000000
    outer loop
      vertex -16.269466 -36.541818 25.000000
      vertex -33.263150 -21.240637 25.000000
      vertex -23.511410 -32.360680 25.000000
    endloop
  endfacet
  facet normal 0.000000 0.000000 1.000000
    outer loop
      vertex -23.511410 -32.360680 25.000000
      vertex -33.263150 -21.240637 25.000000
      vertex -29.725793 -26.765224 25.000000
    endloop
  endfacet
  facet normal 0.000000 -0.000000 1.000000
    outer loop
      vertex 27.496359 -24.757832 25.000000
      vertex 21.748054 -29.933629 25.000000
      vertex 29.725793 -26.765224 25.000000
    endloop
  endfacet
  facet normal 0.000000 -0.000000 1.000000
    outer loop
      vertex 15.049256 -33.801182 25.000000
      vertex 7.692733 -36.191461 25.000000
      vertex 16.269466 -36.541818 25.000000
    endloop
  endfacet
  facet normal 0.000000 0.000000 1.000000
    outer loop
      vertex 34.641016 -20.000000 25.000000
      vertex 33.263150 -21.240637 25.000000
      vertex 29.725793 -26.765224 25.000000
    endloop
  endfacet
  facet normal 0.000000 0.000000 1.000000
    outer loop
      vertex 33.263150 -21.240637 25.000000
      vertex 31.419205 -21.434443 25.000000
      vertex 29.725793 -26.765224 25.000000
    endloop
  endfacet
  facet normal 0.000000 -0.000000 1.000000
    outer loop
      vertex 30.356651 -20.820978 25.000000
      vertex 27.496359 -24.757832 25.000000
      vertex 31.419205 -21.434443 25.000000
    endloop
  endfacet
  facet normal 0.000000 0.000000 1.000000
    outer loop
      vertex 31.419205 -21.434443 25.000000
      vertex 27.496359 -24.757832 25.000000
      vertex 29.725793 -26.765224 25.000000
    endloop
  endfacet
  facet normal 0.000000 0.000000 1.000000
    outer loop
      vertex 29.725793 -26.765224 25.000000
      vertex 21.748054 -29.933629 25.000000
      vertex 23.511410 -32.360680 25.000000
    endloop
  endfacet
  facet normal 0.000000 0.000000 1.000000
    outer loop
      vertex 23.511410 -32.360680 25.000000
      vertex 15.049256 -33.801182 25.000000
      vertex 16.269466 -36.541818 25.000000
    endloop
  endfacet
  facet normal -0.000000 0.000000 1.000000
    outer loop
      vertex 16.269466 -36.541818 25.000000
      vertex 7.692733 -36.191461 25.000000
      vertex 8.316468 -39.125904 25.000000
    endloop
  endfacet
  facet normal -0.000000 0.000000 1.000000
    outer loop
      vertex 8.316468 -39.125904 25.000000
      vertex 0.000000 -37.000000 25.000000
      vertex 0.000000 -40.000000 25.000000
    endloop
  endfacet
  facet normal 0.000000 0.000000 1.000000
    outer loop
      vertex 0.000000 -40.000000 25.000000
      vertex -7.692733 -36.191461 25.000000
      vertex -8.316468 -39.125904 25.000000
    endloop
  endfacet
  facet normal -0.000000 0.000000 1.000000
    outer loop
      vertex -7.692733 -36.191461 25.000000
      vertex -15.049256 -33.801182 25.000000
      vertex -8.316468 -39.125904 25.000000
    endloop
  endfacet
  facet normal 0.000000 0.000000 1.000000
    outer loop
      vertex -8.316468 -39.125904 25.000000
      vertex -21.748054 -29.933629 25.000000
      vertex -16.269466 -36.541818 25.000000
    endloop
  endfacet
  facet normal 0.000000 -0.000000 1.000000
    outer loop
      vertex 21.748054 -29.933629 25.000000
      vertex 15.049256 -33.801182 25.000000
      vertex 23.511410 -32.360680 25.000000
    endloop
  endfacet
  facet normal 0.000000 0.000000 1.000000
    outer loop
      vertex -27.496359 -24.757832 25.000000
      vertex -30.356651 -20.820978 25.000000
      vertex -31.419205 -21.434443 25.000000
    endloop
  endfacet
  facet normal 0.000000 -0.000000 1.000000
    outer loop
      vertex 7.692733 -36.191461 25.000000
      vertex 0.000000 -37.000000 25.000000
      vertex 8.316468 -39.125904 25.000000
    endloop
  endfacet
  facet normal -0.000000 0.000000 1.000000
    outer loop
      vertex 0.000000 -37.000000 25.000000
      vertex -7.692733 -36.191461 25.000000
      vertex 0.000000 -40.000000 25.000000
    endloop
  endfacet
  facet normal -0.000000 -0.000000 1.000000
    outer loop
      vertex -15.049256 -33.801182 25.000000
      vertex -21.748054 -29.933629 25.000000
      vertex -8.316468 -39.125904 25.000000
    endloop
  endfacet
  facet normal 0.000000 0.000000 1.000000
    outer loop
      vertex -31.419205 -21.434443 25.000000
      vertex -21.748054 -29.933629 25.000000
      vertex -27.496359 -24.757832 25.000000
    endloop
  endfacet
  facet normal 0.000000 0.000000 1.000000
    outer loop
      vertex -31.419205 -21.434443 25.000000
      vertex -16.269466 -36.541818 25.000000
      vertex -21.748054 -29.933629 25.000000
    endloop
  endfacet
  facet normal -0.000000 -0.000000 1.000000
    outer loop
      vertex -31.419205 -21.434443 25.000000
      vertex -33.263150 -21.240637 25.000000
      vertex -16.269466 -36.541818 25.000000
    endloop
  endfacet
  facet normal 0.669131 -0.743145 0.000000
    outer loop
      vertex 33.263150 -21.240637 45.000000
      vertex 33.263150 -21.240637 25.000000
      vertex 34.641016 -20.000000 25.000000
    endloop
  endfacet
  facet normal 0.669131 -0.743145 0.000000
    outer loop
      vertex 34.641016 -20.000000 25.000000
      vertex 34.641016 -20.000000 45.000000
      vertex 33.263150 -21.240637 45.000000
    endloop
  endfacet
  facet normal 0.978148 -0.207912 -0.000000
    outer loop
      vertex 35.026506 -18.186414 25.000000
      vertex 34.641016 -20.000000 45.000000
      vertex 34.641016 -19.999999 25.000000
    endloop
  endfacet
  facet normal 0.978148 -0.207912 -0.000000
    outer loop
      vertex 34.641016 -19.999999 25.000000
      vertex 34.641016 -20.000000 45.000000
      vertex 34.641016 -20.000000 25.000000
    endloop
  endfacet
  facet normal 0.978148 -0.207912 0.000000
    outer loop
      vertex 35.026506 -18.186414 45.000000
      vertex 34.641016 -20.000000 45.000000
      vertex 35.026506 -18.186414 25.000000
    endloop
  endfacet
  facet normal 0.000000 0.000000 1.000000
    outer loop
      vertex 7.692733 36.191461 25.000000
      vertex 15.049256 33.801182 25.000000
      vertex 8.316468 39.125904 25.000000
    endloop
  endfacet
  facet normal 0.000000 0.000000 1.000000
    outer loop
      vertex 8.316468 39.125904 25.000000
      vertex 0.000000 40.000000 25.000000
      vertex 1.763356 39.427051 25.000000
    endloop
  endfacet
  facet normal 0.000000 -0.000000 1.000000
    outer loop
      vertex 35.189091 -11.433629 25.000000
      vertex 34.272375 -16.492608 25.000000
      vertex 36.797310 -3.867553 25.000000
    endloop
  endfacet
  facet normal 0.000000 0.000000 1.000000
    outer loop
      vertex 2.853170 37.927051 25.000000
      vertex 8.316468 39.125904 25.000000
      vertex 1.763356 39.427051 25.000000
    endloop
  endfacet
  facet normal 0.000000 -0.000000 1.000000
    outer loop
      vertex 2.853170 37.927051 25.000000
      vertex 2.853170 36.700120 25.000000
      vertex 8.316468 39.125904 25.000000
    endloop
  endfacet
  facet normal 0.000000 0.000000 1.000000
    outer loop
      vertex 2.853170 36.700120 25.000000
      vertex 7.692733 36.191461 25.000000
      vertex 8.316468 39.125904 25.000000
    endloop
  endfacet
  facet normal 0.000000 0.000000 1.000000
    outer loop
      vertex 15.049256 33.801182 25.000000
      vertex 21.748054 29.933629 25.000000
      vertex 8.316468 39.125904 25.000000
    endloop
  endfacet
  facet normal 0.000000 0.000000 1.000000
    outer loop
      vertex 21.748054 29.933629 25.000000
      vertex 29.725793 26.765224 25.000000
      vertex 8.316468 39.125904 25.000000
    endloop
  endfacet
  facet normal 0.000000 0.000000 1.000000
    outer loop
      vertex 27.496359 24.757832 25.000000
      vertex 34.641016 20.000000 25.000000
      vertex 21.748054 29.933629 25.000000
    endloop
  endfacet
  facet normal 0.000000 0.000000 1.000000
    outer loop
      vertex 32.042940 18.500000 25.000000
      vertex 38.042261 12.360680 25.000000
      vertex 27.496359 24.757832 25.000000
    endloop
  endfacet
  facet normal 0.000000 0.000000 1.000000
    outer loop
      vertex 35.189091 11.433629 25.000000
      vertex 39.780876 4.181139 25.000000
      vertex 32.042940 18.500000 25.000000
    endloop
  endfacet
  facet normal 0.000000 0.000000 1.000000
    outer loop
      vertex 36.797310 3.867553 25.000000
      vertex 39.780876 -4.181139 25.000000
      vertex 35.189091 11.433629 25.000000
    endloop
  endfacet
  facet normal 0.000000 0.000000 1.000000
    outer loop
      vertex 36.797310 -3.867553 25.000000
      vertex 38.042261 -12.360680 25.000000
      vertex 36.797310 3.867553 25.000000
    endloop
  endfacet
  facet normal 0.000000 0.000000 1.000000
    outer loop
      vertex 35.026506 -18.186414 25.000000
      vertex 38.042261 -12.360680 25.000000
      vertex 36.797310 -3.867553 25.000000
    endloop
  endfacet
  facet normal 0.000000 0.000000 1.000000
    outer loop
      vertex 33.209821 -15.879142 25.000000
      vertex 34.272375 -16.492608 25.000000
      vertex 35.189091 -11.433629 25.000000
    endloop
  endfacet
  facet normal 0.000000 0.000000 1.000000
    outer loop
      vertex 34.272375 -16.492608 25.000000
      vertex 35.026506 -18.186414 25.000000
      vertex 36.797310 -3.867553 25.000000
    endloop
  endfacet
  facet normal 0.000000 0.000000 1.000000
    outer loop
      vertex 34.641016 -19.999999 25.000000
      vertex 38.042261 -12.360680 25.000000
      vertex 35.026506 -18.186414 25.000000
    endloop
  endfacet
  facet normal 0.000000 0.000000 1.000000
    outer loop
      vertex 38.042261 -12.360680 25.000000
      vertex 39.780876 -4.181139 25.000000
      vertex 36.797310 3.867553 25.000000
    endloop
  endfacet
  facet normal 0.000000 0.000000 1.000000
    outer loop
      vertex 39.780876 -4.181139 25.000000
      vertex 39.780876 4.181139 25.000000
      vertex 35.189091 11.433629 25.000000
    endloop
  endfacet
  facet normal 0.000000 0.000000 1.000000
    outer loop
      vertex 39.780876 4.181139 25.000000
      vertex 38.042261 12.360680 25.000000
      vertex 32.042940 18.500000 25.000000
    endloop
  endfacet
  facet normal 0.000000 0.000000 1.000000
    outer loop
      vertex 38.042261 12.360680 25.000000
      vertex 34.641016 20.000000 25.000000
      vertex 27.496359 24.757832 25.000000
    endloop
  endfacet
  facet normal 0.000000 0.000000 1.000000
    outer loop
      vertex 34.641016 20.000000 25.000000
      vertex 29.725793 26.765224 25.000000
      vertex 21.748054 29.933629 25.000000
    endloop
  endfacet
  facet normal 0.000000 0.000000 1.000000
    outer loop
      vertex 29.725793 26.765224 25.000000
      vertex 23.511410 32.360680 25.000000
      vertex 8.316468 39.125904 25.000000
    endloop
  endfacet
  facet normal 0.000000 0.000000 1.000000
    outer loop
      vertex 23.511410 32.360680 25.000000
      vertex 16.269466 36.541818 25.000000
      vertex 8.316468 39.125904 25.000000
    endloop
  endfacet
  facet normal 0.309017 0.951057 0.000000
    outer loop
      vertex 0.000000 40.000000 25.000000
      vertex 0.000000 40.000000 45.000000
      vertex 1.763356 39.427051 25.000000
    endloop
  endfacet
  facet normal 0.309017 0.951057 0.000000
    outer loop
      vertex 1.763356 39.427051 25.000000
      vertex 0.000000 40.000000 45.000000
      vertex 1.763356 39.427051 45.000000
    endloop
  endfacet
  facet normal -0.309017 0.951057 0.000000
    outer loop
      vertex -1.763356 39.427051 25.000000
      vertex -1.763356 39.427051 45.000000
      vertex 0.000000 40.000000 25.000000
    endloop
  endfacet
  facet normal -0.309017 0.951057 0.000000
    outer loop
      vertex 0.000000 40.000000 25.000000
      vertex -1.763356 39.427051 45.000000
      vertex 0.000000 40.000000 45.000000
    endloop
  endfacet
  facet normal -0.809017 0.587785 0.000000
    outer loop
      vertex -2.853170 37.927051 25.000000
      vertex -2.853170 37.927051 45.000000
      vertex -1.763356 39.427051 25.000000
    endloop
  endfacet
  facet normal -0.809017 0.587785 0.000000
    outer loop
      vertex -1.763356 39.427051 25.000000
      vertex -2.853170 37.927051 45.000000
      vertex -1.763356 39.427051 45.000000
    endloop
  endfacet
  facet normal -1.000000 -0.000000 -0.000000
    outer loop
      vertex -2.853170 36.072949 3.000000
      vertex -2.853170 36.072949 45.000000
      vertex -2.853170 36.700120 3.000000
    endloop
  endfacet
  facet normal -1.000000 0.000000 -0.000000
    outer loop
      vertex -2.853170 36.700120 25.000000
      vertex -2.853170 36.072949 45.000000
      vertex -2.853170 37.927051 45.000000
    endloop
  endfacet
  facet normal -1.000000 0.000000 0.000000
    outer loop
      vertex -2.853170 36.700120 3.000000
      vertex -2.853170 36.072949 45.000000
      vertex -2.853170 36.700120 25.000000
    endloop
  endfacet
  facet normal -1.000000 -0.000000 0.000000
    outer loop
      vertex -2.853170 36.700120 25.000000
      vertex -2.853170 37.927051 45.000000
      vertex -2.853170 37.927051 25.000000
    endloop
  endfacet
  facet normal 0.104528 -0.994522 0.000000
    outer loop
      vertex -2.853170 36.700120 3.000000
      vertex -2.853170 36.700120 25.000000
      vertex -7.692733 36.191461 25.000000
    endloop
  endfacet
  facet normal 0.104528 -0.994522 0.000000
    outer loop
      vertex -7.692733 36.191461 3.000000
      vertex -2.853170 36.700120 3.000000
      vertex -7.692733 36.191461 25.000000
    endloop
  endfacet
  facet normal 0.309017 -0.951057 0.000000
    outer loop
      vertex -7.692733 36.191461 3.000000
      vertex -7.692733 36.191461 25.000000
      vertex -15.049256 33.801182 25.000000
    endloop
  endfacet
  facet normal 0.309017 -0.951057 0.000000
    outer loop
      vertex -15.049256 33.801182 3.000000
      vertex -7.692733 36.191461 3.000000
      vertex -15.049256 33.801182 25.000000
    endloop
  endfacet
  facet normal 0.500000 -0.866025 0.000000
    outer loop
      vertex -15.049256 33.801182 3.000000
      vertex -15.049256 33.801182 25.000000
      vertex -21.748054 29.933629 25.000000
    endloop
  endfacet
  facet normal 0.500000 -0.866025 0.000000
    outer loop
      vertex -21.748054 29.933629 3.000000
      vertex -15.049256 33.801182 3.000000
      vertex -21.748054 29.933629 25.000000
    endloop
  endfacet
  facet normal 0.669131 -0.743145 0.000000
    outer loop
      vertex -21.748054 29.933629 3.000000
      vertex -21.748054 29.933629 25.000000
      vertex -27.496359 24.757832 25.000000
    endloop
  endfacet
  facet normal 0.669131 -0.743145 0.000000
    outer loop
      vertex -27.496359 24.757832 3.000000
      vertex -21.748054 29.933629 3.000000
      vertex -27.496359 24.757832 25.000000
    endloop
  endfacet
  facet normal 0.809017 -0.587785 0.000000
    outer loop
      vertex -27.496359 24.757832 3.000000
      vertex -27.496359 24.757832 25.000000
      vertex -32.042940 18.500000 25.000000
    endloop
  endfacet
  facet normal 0.809017 -0.587785 0.000000
    outer loop
      vertex -32.042940 18.500000 3.000000
      vertex -27.496359 24.757832 3.000000
      vertex -32.042940 18.500000 25.000000
    endloop
  endfacet
  facet normal 0.913545 -0.406737 0.000000
    outer loop
      vertex -32.042940 18.500000 3.000000
      vertex -32.042940 18.500000 25.000000
      vertex -35.189091 11.433629 25.000000
    endloop
  endfacet
  facet normal 0.913545 -0.406737 0.000000
    outer loop
      vertex -35.189091 11.433629 3.000000
      vertex -32.042940 18.500000 3.000000
      vertex -35.189091 11.433629 25.000000
    endloop
  endfacet
  facet normal 0.978148 -0.207912 0.000000
    outer loop
      vertex -35.189091 11.433629 3.000000
      vertex -35.189091 11.433629 25.000000
      vertex -36.797310 3.867553 25.000000
    endloop
  endfacet
  facet normal 0.978148 -0.207912 0.000000
    outer loop
      vertex -36.797310 3.867553 3.000000
      vertex -35.189091 11.433629 3.000000
      vertex -36.797310 3.867553 25.000000
    endloop
  endfacet
  facet normal 1.000000 0.000000 0.000000
    outer loop
      vertex -36.797310 3.867553 3.000000
      vertex -36.797310 3.867553 25.000000
      vertex -36.797310 -3.867553 25.000000
    endloop
  endfacet
  facet normal 1.000000 0.000000 0.000000
    outer loop
      vertex -36.797310 -3.867553 3.000000
      vertex -36.797310 3.867553 3.000000
      vertex -36.797310 -3.867553 25.000000
    endloop
  endfacet
  facet normal 0.978148 0.207912 0.000000
    outer loop
      vertex -36.797310 -3.867553 25.000000
      vertex -35.189091 -11.433629 25.000000
      vertex -35.189091 -11.433629 3.000000
    endloop
  endfacet
  facet normal 0.978148 0.207912 0.000000
    outer loop
      vertex -36.797310 -3.867553 3.000000
      vertex -36.797310 -3.867553 25.000000
      vertex -35.189091 -11.433629 3.000000
    endloop
  endfacet
  facet normal 0.913545 0.406737 0.000000
    outer loop
      vertex -35.189091 -11.433629 25.000000
      vertex -33.209821 -15.879142 25.000000
      vertex -33.209821 -15.879142 3.000000
    endloop
  endfacet
  facet normal 0.913545 0.406737 0.000000
    outer loop
      vertex -35.189091 -11.433629 3.000000
      vertex -35.189091 -11.433629 25.000000
      vertex -33.209821 -15.879142 3.000000
    endloop
  endfacet
  facet normal -0.500000 0.866025 0.000000
    outer loop
      vertex -34.272375 -16.492608 25.000000
      vertex -34.272375 -16.492608 45.000000
      vertex -33.209821 -15.879142 25.000000
    endloop
  endfacet
  facet normal -0.500000 0.866025 -0.000000
    outer loop
      vertex -33.209821 -15.879142 25.000000
      vertex -34.272375 -16.492608 45.000000
      vertex -32.666675 -15.565557 45.000000
    endloop
  endfacet
  facet normal -0.500000 0.866025 0.000000
    outer loop
      vertex -33.209821 -15.879142 25.000000
      vertex -32.666675 -15.565557 45.000000
      vertex -32.666675 -15.565557 3.000000
    endloop
  endfacet
  facet normal -0.500000 0.866025 0.000000
    outer loop
      vertex -33.209821 -15.879142 25.000000
      vertex -32.666675 -15.565557 3.000000
      vertex -33.209821 -15.879142 3.000000
    endloop
  endfacet
  facet normal -0.913545 0.406737 0.000000
    outer loop
      vertex -35.026506 -18.186414 25.000000
      vertex -35.026506 -18.186414 45.000000
      vertex -34.272375 -16.492608 25.000000
    endloop
  endfacet
  facet normal -0.913545 0.406737 0.000000
    outer loop
      vertex -34.272375 -16.492608 25.000000
      vertex -35.026506 -18.186414 45.000000
      vertex -34.272375 -16.492608 45.000000
    endloop
  endfacet
  facet normal 0.000000 0.000000 1.000000
    outer loop
      vertex -34.272375 -16.492608 45.000000
      vertex -35.026506 -18.186414 45.000000
      vertex -34.641016 -20.000000 45.000000
    endloop
  endfacet
  facet normal 0.000000 0.000000 1.000000
    outer loop
      vertex -31.419205 -21.434443 45.000000
      vertex -34.272375 -16.492608 45.000000
      vertex -33.263150 -21.240637 45.000000
    endloop
  endfacet
  facet normal 0.000000 0.000000 1.000000
    outer loop
      vertex -33.263150 -21.240637 45.000000
      vertex -34.272375 -16.492608 45.000000
      vertex -34.641016 -20.000000 45.000000
    endloop
  endfacet
  facet normal -0.000000 0.000000 1.000000
    outer loop
      vertex -29.813505 -20.507392 45.000000
      vertex -34.272375 -16.492608 45.000000
      vertex -31.419205 -21.434443 45.000000
    endloop
  endfacet
  facet normal -0.000000 0.000000 1.000000
    outer loop
      vertex -29.059374 -18.813586 45.000000
      vertex -34.272375 -16.492608 45.000000
      vertex -29.813505 -20.507392 45.000000
    endloop
  endfacet
  facet normal -0.000000 -0.000000 1.000000
    outer loop
      vertex -29.444864 -17.000000 45.000000
      vertex -34.272375 -16.492608 45.000000
      vertex -29.059374 -18.813586 45.000000
    endloop
  endfacet
  facet normal 0.000000 -0.000000 1.000000
    outer loop
      vertex -30.822730 -15.759363 45.000000
      vertex -34.272375 -16.492608 45.000000
      vertex -29.444864 -17.000000 45.000000
    endloop
  endfacet
  facet normal 0.000000 -0.000000 1.000000
    outer loop
      vertex -32.666675 -15.565557 45.000000
      vertex -34.272375 -16.492608 45.000000
      vertex -30.822730 -15.759363 45.000000
    endloop
  endfacet
  facet normal -0.104529 -0.994522 0.000000
    outer loop
      vertex -33.263150 -21.240637 45.000000
      vertex -33.263150 -21.240637 25.000000
      vertex -31.419205 -21.434443 25.000000
    endloop
  endfacet
  facet normal -0.104529 -0.994522 0.000000
    outer loop
      vertex -31.419205 -21.434443 45.000000
      vertex -33.263150 -21.240637 45.000000
      vertex -31.419205 -21.434443 25.000000
    endloop
  endfacet
  facet normal 0.500000 -0.866025 0.000000
    outer loop
      vertex -31.419205 -21.434443 45.000000
      vertex -31.419205 -21.434443 25.000000
      vertex -30.356651 -20.820978 25.000000
    endloop
  endfacet
  facet normal 0.500000 -0.866025 0.000000
    outer loop
      vertex -29.813505 -20.507392 45.000000
      vertex -31.419205 -21.434443 45.000000
      vertex -30.356651 -20.820978 25.000000
    endloop
  endfacet
  facet normal 0.500000 -0.866025 0.000000
    outer loop
      vertex -30.356651 -20.820978 3.000000
      vertex -29.813505 -20.507392 3.000000
      vertex -30.356651 -20.820978 25.000000
    endloop
  endfacet
  facet normal 0.500000 -0.866025 0.000000
    outer loop
      vertex -29.813505 -20.507392 3.000000
      vertex -29.813505 -20.507392 45.000000
      vertex -30.356651 -20.820978 25.000000
    endloop
  endfacet
  facet normal 0.809017 0.587785 0.000000
    outer loop
      vertex -30.356651 -20.820978 25.000000
      vertex -27.496359 -24.757832 25.000000
      vertex -27.496359 -24.757832 3.000000
    endloop
  endfacet
  facet normal 0.809017 0.587785 0.000000
    outer loop
      vertex -30.356651 -20.820978 3.000000
      vertex -30.356651 -20.820978 25.000000
      vertex -27.496359 -24.757832 3.000000
    endloop
  endfacet
  facet normal 0.669131 0.743145 -0.000000
    outer loop
      vertex -21.748054 -29.933629 25.000000
      vertex -21.748054 -29.933629 3.000000
      vertex -27.496359 -24.757832 25.000000
    endloop
  endfacet
  facet normal 0.669131 0.743145 -0.000000
    outer loop
      vertex -27.496359 -24.757832 25.000000
      vertex -21.748054 -29.933629 3.000000
      vertex -27.496359 -24.757832 3.000000
    endloop
  endfacet
  facet normal 0.500000 0.866025 -0.000000
    outer loop
      vertex -15.049256 -33.801182 25.000000
      vertex -15.049256 -33.801182 3.000000
      vertex -21.748054 -29.933629 25.000000
    endloop
  endfacet
  facet normal 0.500000 0.866025 -0.000000
    outer loop
      vertex -21.748054 -29.933629 25.000000
      vertex -15.049256 -33.801182 3.000000
      vertex -21.748054 -29.933629 3.000000
    endloop
  endfacet
  facet normal 0.309017 0.951057 -0.000000
    outer loop
      vertex -7.692733 -36.191461 25.000000
      vertex -7.692733 -36.191461 3.000000
      vertex -15.049256 -33.801182 25.000000
    endloop
  endfacet
  facet normal 0.309017 0.951057 -0.000000
    outer loop
      vertex -15.049256 -33.801182 25.000000
      vertex -7.692733 -36.191461 3.000000
      vertex -15.049256 -33.801182 3.000000
    endloop
  endfacet
  facet normal 0.104528 0.994522 -0.000000
    outer loop
      vertex 0.000000 -37.000000 25.000000
      vertex 0.000000 -37.000000 3.000000
      vertex -7.692733 -36.191461 25.000000
    endloop
  endfacet
  facet normal 0.104528 0.994522 -0.000000
    outer loop
      vertex -7.692733 -36.191461 25.000000
      vertex 0.000000 -37.000000 3.000000
      vertex -7.692733 -36.191461 3.000000
    endloop
  endfacet
  facet normal -0.104528 0.994522 0.000000
    outer loop
      vertex 7.692733 -36.191461 25.000000
      vertex 7.692733 -36.191461 3.000000
      vertex 0.000000 -37.000000 25.000000
    endloop
  endfacet
  facet normal -0.104528 0.994522 0.000000
    outer loop
      vertex 0.000000 -37.000000 25.000000
      vertex 7.692733 -36.191461 3.000000
      vertex 0.000000 -37.000000 3.000000
    endloop
  endfacet
  facet normal -0.309017 0.951057 0.000000
    outer loop
      vertex 15.049256 -33.801182 25.000000
      vertex 15.049256 -33.801182 3.000000
      vertex 7.692733 -36.191461 25.000000
    endloop
  endfacet
  facet normal -0.309017 0.951057 0.000000
    outer loop
      vertex 7.692733 -36.191461 25.000000
      vertex 15.049256 -33.801182 3.000000
      vertex 7.692733 -36.191461 3.000000
    endloop
  endfacet
  facet normal -0.500000 0.866025 0.000000
    outer loop
      vertex 21.748054 -29.933629 25.000000
      vertex 21.748054 -29.933629 3.000000
      vertex 15.049256 -33.801182 25.000000
    endloop
  endfacet
  facet normal -0.500000 0.866025 0.000000
    outer loop
      vertex 15.049256 -33.801182 25.000000
      vertex 21.748054 -29.933629 3.000000
      vertex 15.049256 -33.801182 3.000000
    endloop
  endfacet
  facet normal -0.669131 0.743145 0.000000
    outer loop
      vertex 27.496359 -24.757832 25.000000
      vertex 27.496359 -24.757832 3.000000
      vertex 21.748054 -29.933629 25.000000
    endloop
  endfacet
  facet normal -0.669131 0.743145 0.000000
    outer loop
      vertex 21.748054 -29.933629 25.000000
      vertex 27.496359 -24.757832 3.000000
      vertex 21.748054 -29.933629 3.000000
    endloop
  endfacet
  facet normal -0.809017 0.587785 0.000000
    outer loop
      vertex 30.356651 -20.820978 25.000000
      vertex 30.356651 -20.820978 3.000000
      vertex 27.496359 -24.757832 25.000000
    endloop
  endfacet
  facet normal -0.809017 0.587785 0.000000
    outer loop
      vertex 27.496359 -24.757832 25.000000
      vertex 30.356651 -20.820978 3.000000
      vertex 27.496359 -24.757832 3.000000
    endloop
  endfacet
  facet normal -0.500000 -0.866025 0.000000
    outer loop
      vertex 29.813505 -20.507392 45.000000
      vertex 29.813505 -20.507392 3.000000
      vertex 30.356651 -20.820978 3.000000
    endloop
  endfacet
  facet normal -0.500000 -0.866025 -0.000000
    outer loop
      vertex 31.419205 -21.434443 25.000000
      vertex 29.813505 -20.507392 45.000000
      vertex 30.356651 -20.820978 25.000000
    endloop
  endfacet
  facet normal -0.500000 -0.866025 0.000000
    outer loop
      vertex 30.356651 -20.820978 25.000000
      vertex 29.813505 -20.507392 45.000000
      vertex 30.356651 -20.820978 3.000000
    endloop
  endfacet
  facet normal -0.500000 -0.866025 0.000000
    outer loop
      vertex 31.419205 -21.434443 45.000000
      vertex 29.813505 -20.507392 45.000000
      vertex 31.419205 -21.434443 25.000000
    endloop
  endfacet
  facet normal 0.104529 -0.994522 0.000000
    outer loop
      vertex 31.419205 -21.434443 45.000000
      vertex 31.419205 -21.434443 25.000000
      vertex 33.263150 -21.240637 25.000000
    endloop
  endfacet
  facet normal 0.104529 -0.994522 0.000000
    outer loop
      vertex 33.263150 -21.240637 45.000000
      vertex 31.419205 -21.434443 45.000000
      vertex 33.263150 -21.240637 25.000000
    endloop
  endfacet
  facet normal 0.000000 -0.000000 1.000000
    outer loop
      vertex 29.444864 -17.000000 45.000000
      vertex 29.059374 -18.813586 45.000000
      vertex 29.813505 -20.507392 45.000000
    endloop
  endfacet
  facet normal -0.000000 0.000000 1.000000
    outer loop
      vertex 33.263150 -21.240637 45.000000
      vertex 29.444864 -17.000000 45.000000
      vertex 31.419205 -21.434443 45.000000
    endloop
  endfacet
  facet normal 0.000000 0.000000 1.000000
    outer loop
      vertex 31.419205 -21.434443 45.000000
      vertex 29.444864 -17.000000 45.000000
      vertex 29.813505 -20.507392 45.000000
    endloop
  endfacet
  facet normal -0.000000 0.000000 1.000000
    outer loop
      vertex 34.641016 -20.000000 45.000000
      vertex 29.444864 -17.000000 45.000000
      vertex 33.263150 -21.240637 45.000000
    endloop
  endfacet
  facet normal -0.000000 0.000000 1.000000
    outer loop
      vertex 35.026506 -18.186414 45.000000
      vertex 29.444864 -17.000000 45.000000
      vertex 34.641016 -20.000000 45.000000
    endloop
  endfacet
  facet normal 0.000000 -0.000000 1.000000
    outer loop
      vertex 34.272375 -16.492608 45.000000
      vertex 29.444864 -17.000000 45.000000
      vertex 35.026506 -18.186414 45.000000
    endloop
  endfacet
  facet normal 0.000000 -0.000000 1.000000
    outer loop
      vertex 32.666675 -15.565557 45.000000
      vertex 29.444864 -17.000000 45.000000
      vertex 34.272375 -16.492608 45.000000
    endloop
  endfacet
  facet normal 0.000000 -0.000000 1.000000
    outer loop
      vertex 30.822730 -15.759363 45.000000
      vertex 29.444864 -17.000000 45.000000
      vertex 32.666675 -15.565557 45.000000
    endloop
  endfacet
  facet normal 0.913545 0.406737 0.000000
    outer loop
      vertex 35.026506 -18.186414 25.000000
      vertex 34.272375 -16.492608 25.000000
      vertex 34.272375 -16.492608 45.000000
    endloop
  endfacet
  facet normal 0.913545 0.406737 -0.000000
    outer loop
      vertex 35.026506 -18.186414 45.000000
      vertex 35.026506 -18.186414 25.000000
      vertex 34.272375 -16.492608 45.000000
    endloop
  endfacet
  facet normal 0.500000 0.866025 0.000000
    outer loop
      vertex 32.666675 -15.565557 3.000000
      vertex 32.666675 -15.565557 45.000000
      vertex 33.209821 -15.879142 3.000000
    endloop
  endfacet
  facet normal 0.500000 0.866025 0.000000
    outer loop
      vertex 33.209821 -15.879142 25.000000
      vertex 32.666675 -15.565557 45.000000
      vertex 34.272375 -16.492608 45.000000
    endloop
  endfacet
  facet normal 0.500000 0.866025 0.000000
    outer loop
      vertex 33.209821 -15.879142 3.000000
      vertex 32.666675 -15.565557 45.000000
      vertex 33.209821 -15.879142 25.000000
    endloop
  endfacet
  facet normal 0.500000 0.866025 0.000000
    outer loop
      vertex 33.209821 -15.879142 25.000000
      vertex 34.272375 -16.492608 45.000000
      vertex 34.272375 -16.492608 25.000000
    endloop
  endfacet
  facet normal -0.913545 0.406737 0.000000
    outer loop
      vertex 35.189091 -11.433629 25.000000
      vertex 35.189091 -11.433629 3.000000
      vertex 33.209821 -15.879142 25.000000
    endloop
  endfacet
  facet normal -0.913545 0.406737 0.000000
    outer loop
      vertex 33.209821 -15.879142 25.000000
      vertex 35.189091 -11.433629 3.000000
      vertex 33.209821 -15.879142 3.000000
    endloop
  endfacet
  facet normal -0.978148 0.207912 0.000000
    outer loop
      vertex 36.797310 -3.867553 25.000000
      vertex 36.797310 -3.867553 3.000000
      vertex 35.189091 -11.433629 25.000000
    endloop
  endfacet
  facet normal -0.978148 0.207912 0.000000
    outer loop
      vertex 35.189091 -11.433629 25.000000
      vertex 36.797310 -3.867553 3.000000
      vertex 35.189091 -11.433629 3.000000
    endloop
  endfacet
  facet normal -1.000000 0.000000 0.000000
    outer loop
      vertex 36.797310 3.867553 25.000000
      vertex 36.797310 3.867553 3.000000
      vertex 36.797310 -3.867553 25.000000
    endloop
  endfacet
  facet normal -1.000000 0.000000 0.000000
    outer loop
      vertex 36.797310 -3.867553 25.000000
      vertex 36.797310 3.867553 3.000000
      vertex 36.797310 -3.867553 3.000000
    endloop
  endfacet
  facet normal -0.978148 -0.207912 0.000000
    outer loop
      vertex 36.797310 3.867553 25.000000
      vertex 35.189091 11.433629 25.000000
      vertex 36.797310 3.867553 3.000000
    endloop
  endfacet
  facet normal -0.978148 -0.207912 0.000000
    outer loop
      vertex 36.797310 3.867553 3.000000
      vertex 35.189091 11.433629 25.000000
      vertex 35.189091 11.433629 3.000000
    endloop
  endfacet
  facet normal -0.913545 -0.406737 0.000000
    outer loop
      vertex 35.189091 11.433629 25.000000
      vertex 32.042940 18.500000 25.000000
      vertex 35.189091 11.433629 3.000000
    endloop
  endfacet
  facet normal -0.913545 -0.406737 0.000000
    outer loop
      vertex 35.189091 11.433629 3.000000
      vertex 32.042940 18.500000 25.000000
      vertex 32.042940 18.500000 3.000000
    endloop
  endfacet
  facet normal -0.809017 -0.587785 0.000000
    outer loop
      vertex 32.042940 18.500000 25.000000
      vertex 27.496359 24.757832 25.000000
      vertex 32.042940 18.500000 3.000000
    endloop
  endfacet
  facet normal -0.809017 -0.587785 0.000000
    outer loop
      vertex 32.042940 18.500000 3.000000
      vertex 27.496359 24.757832 25.000000
      vertex 27.496359 24.757832 3.000000
    endloop
  endfacet
  facet normal -0.669131 -0.743145 -0.000000
    outer loop
      vertex 27.496359 24.757832 3.000000
      vertex 27.496359 24.757832 25.000000
      vertex 21.748054 29.933629 25.000000
    endloop
  endfacet
  facet normal -0.669131 -0.743145 -0.000000
    outer loop
      vertex 21.748054 29.933629 3.000000
      vertex 27.496359 24.757832 3.000000
      vertex 21.748054 29.933629 25.000000
    endloop
  endfacet
  facet normal -0.500000 -0.866025 -0.000000
    outer loop
      vertex 21.748054 29.933629 3.000000
      vertex 21.748054 29.933629 25.000000
      vertex 15.049256 33.801182 25.000000
    endloop
  endfacet
  facet normal -0.500000 -0.866025 -0.000000
    outer loop
      vertex 15.049256 33.801182 3.000000
      vertex 21.748054 29.933629 3.000000
      vertex 15.049256 33.801182 25.000000
    endloop
  endfacet
  facet normal -0.309017 -0.951057 -0.000000
    outer loop
      vertex 15.049256 33.801182 3.000000
      vertex 15.049256 33.801182 25.000000
      vertex 7.692733 36.191461 25.000000
    endloop
  endfacet
  facet normal -0.309017 -0.951057 -0.000000
    outer loop
      vertex 7.692733 36.191461 3.000000
      vertex 15.049256 33.801182 3.000000
      vertex 7.692733 36.191461 25.000000
    endloop
  endfacet
  facet normal -0.104528 -0.994522 -0.000000
    outer loop
      vertex 7.692733 36.191461 3.000000
      vertex 7.692733 36.191461 25.000000
      vertex 2.853170 36.700120 25.000000
    endloop
  endfacet
  facet normal -0.104528 -0.994522 -0.000000
    outer loop
      vertex 2.853170 36.700120 3.000000
      vertex 7.692733 36.191461 3.000000
      vertex 2.853170 36.700120 25.000000
    endloop
  endfacet
  facet normal 1.000000 0.000000 -0.000000
    outer loop
      vertex 2.853170 36.072949 45.000000
      vertex 2.853170 36.072949 3.000000
      vertex 2.853170 36.700120 3.000000
    endloop
  endfacet
  facet normal 1.000000 -0.000000 0.000000
    outer loop
      vertex 2.853170 37.927051 25.000000
      vertex 2.853170 36.072949 45.000000
      vertex 2.853170 36.700120 25.000000
    endloop
  endfacet
  facet normal 1.000000 -0.000000 0.000000
    outer loop
      vertex 2.853170 36.700120 25.000000
      vertex 2.853170 36.072949 45.000000
      vertex 2.853170 36.700120 3.000000
    endloop
  endfacet
  facet normal 1.000000 0.000000 0.000000
    outer loop
      vertex 2.853170 37.927051 45.000000
      vertex 2.853170 36.072949 45.000000
      vertex 2.853170 37.927051 25.000000
    endloop
  endfacet
  facet normal 0.809017 0.587785 0.000000
    outer loop
      vertex 2.853170 37.927051 25.000000
      vertex 1.763356 39.427051 25.000000
      vertex 1.763356 39.427051 45.000000
    endloop
  endfacet
  facet normal 0.809017 0.587785 -0.000000
    outer loop
      vertex 2.853170 37.927051 45.000000
      vertex 2.853170 37.927051 25.000000
      vertex 1.763356 39.427051 45.000000
    endloop
  endfacet
  facet normal 0.000000 -0.000000 1.000000
    outer loop
      vertex -2.853170 37.927051 45.000000
      vertex -2.853170 36.072949 45.000000
      vertex -1.763356 34.572949 45.000000
    endloop
  endfacet
  facet normal -0.000000 0.000000 1.000000
    outer loop
      vertex 1.763356 34.572949 45.000000
      vertex -2.853170 37.927051 45.000000
      vertex 0.000000 34.000000 45.000000
    endloop
  endfacet
  facet normal 0.000000 0.000000 1.000000
    outer loop
      vertex 0.000000 34.000000 45.000000
      vertex -2.853170 37.927051 45.000000
      vertex -1.763356 34.572949 45.000000
    endloop
  endfacet
  facet normal -0.000000 0.000000 1.000000
    outer loop
      vertex 2.853170 36.072949 45.000000
      vertex -2.853170 37.927051 45.000000
      vertex 1.763356 34.572949 45.000000
    endloop
  endfacet
  facet normal 0.000000 0.000000 1.000000
    outer loop
      vertex 2.853170 37.927051 45.000000
      vertex -2.853170 37.927051 45.000000
      vertex 2.853170 36.072949 45.000000
    endloop
  endfacet
  facet normal 0.000000 -0.000000 1.000000
    outer loop
      vertex 1.763356 39.427051 45.000000
      vertex -2.853170 37.927051 45.000000
      vertex 2.853170 37.927051 45.000000
    endloop
  endfacet
  facet normal 0.000000 -0.000000 1.000000
    outer loop
      vertex 0.000000 40.000000 45.000000
      vertex -2.853170 37.927051 45.000000
      vertex 1.763356 39.427051 45.000000
    endloop
  endfacet
  facet normal 0.000000 -0.000000 1.000000
    outer loop
      vertex -1.763356 39.427051 45.000000
      vertex -2.853170 37.927051 45.000000
      vertex 0.000000 40.000000 45.000000
    endloop
  endfacet
  facet normal 0.000000 0.000000 1.000000
    outer loop
      vertex -29.444864 -17.000000 3.000000
      vertex -7.692733 -36.191461 3.000000
      vertex -35.189091 -11.433629 3.000000
    endloop
  endfacet
  facet normal 0.000000 0.000000 1.000000
    outer loop
      vertex -35.189091 -11.433629 3.000000
      vertex -33.209821 -15.879142 3.000000
      vertex -32.666675 -15.565557 3.000000
    endloop
  endfacet
  facet normal 0.000000 0.000000 1.000000
    outer loop
      vertex -29.059374 -18.813586 3.000000
      vertex -27.496359 -24.757832 3.000000
      vertex -29.444864 -17.000000 3.000000
    endloop
  endfacet
  facet normal 0.000000 0.000000 1.000000
    outer loop
      vertex -30.822730 -15.759363 3.000000
      vertex -35.189091 -11.433629 3.000000
      vertex -32.666675 -15.565557 3.000000
    endloop
  endfacet
  facet normal 0.000000 0.000000 1.000000
    outer loop
      vertex -30.822730 -15.759363 3.000000
      vertex -29.444864 -17.000000 3.000000
      vertex -35.189091 -11.433629 3.000000
    endloop
  endfacet
  facet normal 0.000000 0.000000 1.000000
    outer loop
      vertex -29.813505 -20.507392 3.000000
      vertex -27.496359 -24.757832 3.000000
      vertex -29.059374 -18.813586 3.000000
    endloop
  endfacet
  facet normal 0.000000 0.000000 1.000000
    outer loop
      vertex 29.813505 -20.507392 3.000000
      vertex 29.059374 -18.813586 3.000000
      vertex -35.189091 -11.433629 3.000000
    endloop
  endfacet
  facet normal 0.000000 0.000000 1.000000
    outer loop
      vertex -30.356651 -20.820978 3.000000
      vertex -27.496359 -24.757832 3.000000
      vertex -29.813505 -20.507392 3.000000
    endloop
  endfacet
  facet normal 0.000000 0.000000 1.000000
    outer loop
      vertex -27.496359 -24.757832 3.000000
      vertex -21.748054 -29.933629 3.000000
      vertex -29.444864 -17.000000 3.000000
    endloop
  endfacet
  facet normal 0.000000 0.000000 1.000000
    outer loop
      vertex -21.748054 -29.933629 3.000000
      vertex -15.049256 -33.801182 3.000000
      vertex -29.444864 -17.000000 3.000000
    endloop
  endfacet
  facet normal 0.000000 0.000000 1.000000
    outer loop
      vertex -15.049256 -33.801182 3.000000
      vertex -7.692733 -36.191461 3.000000
      vertex -29.444864 -17.000000 3.000000
    endloop
  endfacet
  facet normal 0.000000 0.000000 1.000000
    outer loop
      vertex -7.692733 -36.191461 3.000000
      vertex 0.000000 -37.000000 3.000000
      vertex -35.189091 -11.433629 3.000000
    endloop
  endfacet
  facet normal 0.000000 0.000000 1.000000
    outer loop
      vertex 0.000000 -37.000000 3.000000
      vertex 7.692733 -36.191461 3.000000
      vertex -35.189091 -11.433629 3.000000
    endloop
  endfacet
  facet normal 0.000000 0.000000 1.000000
    outer loop
      vertex 7.692733 -36.191461 3.000000
      vertex 15.049256 -33.801182 3.000000
      vertex -35.189091 -11.433629 3.000000
    endloop
  endfacet
  facet normal 0.000000 0.000000 1.000000
    outer loop
      vertex 15.049256 -33.801182 3.000000
      vertex 21.748054 -29.933629 3.000000
      vertex -35.189091 -11.433629 3.000000
    endloop
  endfacet
  facet normal 0.000000 0.000000 1.000000
    outer loop
      vertex 21.748054 -29.933629 3.000000
      vertex 27.496359 -24.757832 3.000000
      vertex -35.189091 -11.433629 3.000000
    endloop
  endfacet
  facet normal 0.000000 0.000000 1.000000
    outer loop
      vertex 27.496359 -24.757832 3.000000
      vertex 30.356651 -20.820978 3.000000
      vertex -35.189091 -11.433629 3.000000
    endloop
  endfacet
  facet normal 0.000000 0.000000 1.000000
    outer loop
      vertex 30.356651 -20.820978 3.000000
      vertex 29.813505 -20.507392 3.000000
      vertex -35.189091 -11.433629 3.000000
    endloop
  endfacet
  facet normal 0.000000 0.000000 1.000000
    outer loop
      vertex 29.059374 -18.813586 3.000000
      vertex 29.444864 -17.000000 3.000000
      vertex -35.189091 -11.433629 3.000000
    endloop
  endfacet
  facet normal 0.000000 0.000000 1.000000
    outer loop
      vertex 29.444864 -17.000000 3.000000
      vertex 30.822730 -15.759363 3.000000
      vertex -35.189091 -11.433629 3.000000
    endloop
  endfacet
  facet normal 0.000000 0.000000 1.000000
    outer loop
      vertex 30.822730 -15.759363 3.000000
      vertex 32.666675 -15.565557 3.000000
      vertex -35.189091 -11.433629 3.000000
    endloop
  endfacet
  facet normal 0.000000 0.000000 1.000000
    outer loop
      vertex 32.666675 -15.565557 3.000000
      vertex 35.189091 -11.433629 3.000000
      vertex -35.189091 -11.433629 3.000000
    endloop
  endfacet
  facet normal -0.000000 0.000000 1.000000
    outer loop
      vertex 0.000000 34.000000 3.000000
      vertex -1.763356 34.572949 3.000000
      vertex -35.189091 -11.433629 3.000000
    endloop
  endfacet
  facet normal 0.000000 0.000000 1.000000
    outer loop
      vertex 33.209821 -15.879142 3.000000
      vertex 35.189091 -11.433629 3.000000
      vertex 32.666675 -15.565557 3.000000
    endloop
  endfacet
  facet normal -0.000000 0.000000 1.000000
    outer loop
      vertex 35.189091 -11.433629 3.000000
      vertex 36.797310 -3.867553 3.000000
      vertex -35.189091 -11.433629 3.000000
    endloop
  endfacet
  facet normal -0.000000 0.000000 1.000000
    outer loop
      vertex 36.797310 -3.867553 3.000000
      vertex 36.797310 3.867553 3.000000
      vertex -35.189091 -11.433629 3.000000
    endloop
  endfacet
  facet normal -0.000000 0.000000 1.000000
    outer loop
      vertex 36.797310 3.867553 3.000000
      vertex 35.189091 11.433629 3.000000
      vertex -35.189091 -11.433629 3.000000
    endloop
  endfacet
  facet normal -0.000000 0.000000 1.000000
    outer loop
      vertex 35.189091 11.433629 3.000000
      vertex 32.042940 18.500000 3.000000
      vertex -35.189091 -11.433629 3.000000
    endloop
  endfacet
  facet normal -0.000000 0.000000 1.000000
    outer loop
      vertex 32.042940 18.500000 3.000000
      vertex 27.496359 24.757832 3.000000
      vertex -35.189091 -11.433629 3.000000
    endloop
  endfacet
  facet normal -0.000000 0.000000 1.000000
    outer loop
      vertex 27.496359 24.757832 3.000000
      vertex 21.748054 29.933629 3.000000
      vertex -35.189091 -11.433629 3.000000
    endloop
  endfacet
  facet normal -0.000000 0.000000 1.000000
    outer loop
      vertex 21.748054 29.933629 3.000000
      vertex 15.049256 33.801182 3.000000
      vertex -35.189091 -11.433629 3.000000
    endloop
  endfacet
  facet normal -0.000000 0.000000 1.000000
    outer loop
      vertex 15.049256 33.801182 3.000000
      vertex 7.692733 36.191461 3.000000
      vertex -35.189091 -11.433629 3.000000
    endloop
  endfacet
  facet normal -0.000000 0.000000 1.000000
    outer loop
      vertex 7.692733 36.191461 3.000000
      vertex 2.853170 36.700120 3.000000
      vertex 2.853170 36.072949 3.000000
    endloop
  endfacet
  facet normal 0.000000 0.000000 1.000000
    outer loop
      vertex 7.692733 36.191461 3.000000
      vertex 1.763356 34.572949 3.000000
      vertex -35.189091 -11.433629 3.000000
    endloop
  endfacet
  facet normal 0.000000 0.000000 1.000000
    outer loop
      vertex 7.692733 36.191461 3.000000
      vertex 2.853170 36.072949 3.000000
      vertex 1.763356 34.572949 3.000000
    endloop
  endfacet
  facet normal -0.000000 0.000000 1.000000
    outer loop
      vertex -1.763356 34.572949 3.000000
      vertex -2.853170 36.072949 3.000000
      vertex -35.189091 -11.433629 3.000000
    endloop
  endfacet
  facet normal -0.000000 0.000000 1.000000
    outer loop
      vertex -2.853170 36.072949 3.000000
      vertex -2.853170 36.700120 3.000000
      vertex -35.189091 -11.433629 3.000000
    endloop
  endfacet
  facet normal 0.000000 0.000000 1.000000
    outer loop
      vertex -2.853170 36.700120 3.000000
      vertex -7.692733 36.191461 3.000000
      vertex -35.189091 -11.433629 3.000000
    endloop
  endfacet
  facet normal 0.000000 0.000000 1.000000
    outer loop
      vertex -7.692733 36.191461 3.000000
      vertex -15.049256 33.801182 3.000000
      vertex -35.189091 -11.433629 3.000000
    endloop
  endfacet
  facet normal 0.000000 0.000000 1.000000
    outer loop
      vertex -15.049256 33.801182 3.000000
      vertex -21.748054 29.933629 3.000000
      vertex -35.189091 -11.433629 3.000000
    endloop
  endfacet
  facet normal 0.000000 0.000000 1.000000
    outer loop
      vertex -21.748054 29.933629 3.000000
      vertex -27.496359 24.757832 3.000000
      vertex -35.189091 -11.433629 3.000000
    endloop
  endfacet
  facet normal 0.000000 0.000000 1.000000
    outer loop
      vertex -27.496359 24.757832 3.000000
      vertex -32.042940 18.500000 3.000000
      vertex -35.189091 -11.433629 3.000000
    endloop
  endfacet
  facet normal 0.000000 0.000000 1.000000
    outer loop
      vertex -32.042940 18.500000 3.000000
      vertex -35.189091 11.433629 3.000000
      vertex -35.189091 -11.433629 3.000000
    endloop
  endfacet
  facet normal 0.000000 0.000000 1.000000
    outer loop
      vertex -35.189091 11.433629 3.000000
      vertex -36.797310 3.867553 3.000000
      vertex -35.189091 -11.433629 3.000000
    endloop
  endfacet
  facet normal 0.000000 -0.000000 1.000000
    outer loop
      vertex -36.797310 3.867553 3.000000
      vertex -36.797310 -3.867553 3.000000
      vertex -35.189091 -11.433629 3.000000
    endloop
  endfacet
  facet normal 0.000000 0.000000 1.000000
    outer loop
      vertex 1.763356 34.572949 3.000000
      vertex 0.000000 34.000000 3.000000
      vertex -35.189091 -11.433629 3.000000
    endloop
  endfacet
  facet normal -0.809017 -0.587785 -0.000000
    outer loop
      vertex -2.853170 36.072949 3.000000
      vertex -1.763356 34.572949 3.000000
      vertex -2.853170 36.072949 45.000000
    endloop
  endfacet
  facet normal -0.809017 -0.587785 0.000000
    outer loop
      vertex -2.853170 36.072949 45.000000
      vertex -1.763356 34.572949 3.000000
      vertex -1.763356 34.572949 45.000000
    endloop
  endfacet
  facet normal 0.104529 0.994522 0.000000
    outer loop
      vertex -32.666675 -15.565557 3.000000
      vertex -32.666675 -15.565557 45.000000
      vertex -30.822730 -15.759363 3.000000
    endloop
  endfacet
  facet normal 0.104529 0.994522 0.000000
    outer loop
      vertex -30.822730 -15.759363 3.000000
      vertex -32.666675 -15.565557 45.000000
      vertex -30.822730 -15.759363 45.000000
    endloop
  endfacet
  facet normal 0.669131 0.743145 0.000000
    outer loop
      vertex -30.822730 -15.759363 3.000000
      vertex -30.822730 -15.759363 45.000000
      vertex -29.444864 -17.000000 3.000000
    endloop
  endfacet
  facet normal 0.669131 0.743145 0.000000
    outer loop
      vertex -29.444864 -17.000000 3.000000
      vertex -30.822730 -15.759363 45.000000
      vertex -29.444864 -17.000000 45.000000
    endloop
  endfacet
  facet normal 0.978148 0.207912 0.000000
    outer loop
      vertex -29.059374 -18.813586 3.000000
      vertex -29.444864 -17.000000 3.000000
      vertex -29.444864 -17.000000 45.000000
    endloop
  endfacet
  facet normal 0.978148 0.207912 -0.000000
    outer loop
      vertex -29.059374 -18.813586 45.000000
      vertex -29.059374 -18.813586 3.000000
      vertex -29.444864 -17.000000 45.000000
    endloop
  endfacet
  facet normal 0.913545 -0.406737 0.000000
    outer loop
      vertex -29.813505 -20.507392 45.000000
      vertex -29.813505 -20.507392 3.000000
      vertex -29.059374 -18.813586 3.000000
    endloop
  endfacet
  facet normal 0.913545 -0.406737 0.000000
    outer loop
      vertex -29.059374 -18.813586 45.000000
      vertex -29.813505 -20.507392 45.000000
      vertex -29.059374 -18.813586 3.000000
    endloop
  endfacet
  facet normal -0.913545 -0.406737 -0.000000
    outer loop
      vertex 29.059374 -18.813586 3.000000
      vertex 29.813505 -20.507392 3.000000
      vertex 29.059374 -18.813586 45.000000
    endloop
  endfacet
  facet normal -0.913545 -0.406737 0.000000
    outer loop
      vertex 29.059374 -18.813586 45.000000
      vertex 29.813505 -20.507392 3.000000
      vertex 29.813505 -20.507392 45.000000
    endloop
  endfacet
  facet normal -0.978148 0.207912 0.000000
    outer loop
      vertex 29.059374 -18.813586 3.000000
      vertex 29.059374 -18.813586 45.000000
      vertex 29.444864 -17.000000 3.000000
    endloop
  endfacet
  facet normal -0.978148 0.207912 0.000000
    outer loop
      vertex 29.444864 -17.000000 3.000000
      vertex 29.059374 -18.813586 45.000000
      vertex 29.444864 -17.000000 45.000000
    endloop
  endfacet
  facet normal -0.669131 0.743145 0.000000
    outer loop
      vertex 29.444864 -17.000000 3.000000
      vertex 29.444864 -17.000000 45.000000
      vertex 30.822730 -15.759363 3.000000
    endloop
  endfacet
  facet normal -0.669131 0.743145 0.000000
    outer loop
      vertex 30.822730 -15.759363 3.000000
      vertex 29.444864 -17.000000 45.000000
      vertex 30.822730 -15.759363 45.000000
    endloop
  endfacet
  facet normal -0.104529 0.994522 0.000000
    outer loop
      vertex 30.822730 -15.759363 3.000000
      vertex 30.822730 -15.759363 45.000000
      vertex 32.666675 -15.565557 3.000000
    endloop
  endfacet
  facet normal -0.104529 0.994522 0.000000
    outer loop
      vertex 32.666675 -15.565557 3.000000
      vertex 30.822730 -15.759363 45.000000
      vertex 32.666675 -15.565557 45.000000
    endloop
  endfacet
  facet normal 0.809017 -0.587785 0.000000
    outer loop
      vertex 1.763356 34.572949 45.000000
      vertex 1.763356 34.572949 3.000000
      vertex 2.853170 36.072949 3.000000
    endloop
  endfacet
  facet normal 0.809017 -0.587785 0.000000
    outer loop
      vertex 2.853170 36.072949 45.000000
      vertex 1.763356 34.572949 45.000000
      vertex 2.853170 36.072949 3.000000
    endloop
  endfacet
  facet normal 0.309017 -0.951057 0.000000
    outer loop
      vertex 0.000000 34.000000 45.000000
      vertex 0.000000 34.000000 3.000000
      vertex 1.763356 34.572949 3.000000
    endloop
  endfacet
  facet normal 0.309017 -0.951057 0.000000
    outer loop
      vertex 1.763356 34.572949 45.000000
      vertex 0.000000 34.000000 45.000000
      vertex 1.763356 34.572949 3.000000
    endloop
  endfacet
  facet normal -0.309017 -0.951057 0.000000
    outer loop
      vertex -1.763356 34.572949 45.000000
      vertex -1.763356 34.572949 3.000000
      vertex 0.000000 34.000000 3.000000
    endloop
  endfacet
  facet normal -0.309017 -0.951057 0.000000
    outer loop
      vertex 0.000000 34.000000 45.000000
      vertex -1.763356 34.572949 45.000000
      vertex 0.000000 34.000000 3.000000
    endloop
  endfacet
endsolid OpenSCAD_Model
